<svg xmlns="http://www.w3.org/2000/svg" viewBox="0 0 162.37 172.33"><defs><style>.cls-1{fill:#6eced3;}.cls-2{fill:#61c1c1;}.cls-3{fill:#fff;}.cls-4{fill:#eaeaea;}.cls-5{fill:#b6ddf6;}.cls-6{fill:#a6cde2;}.cls-7{fill:#595f7c;}.cls-8{fill:#4d546b;}.cls-9{fill:#94dfe6;}.cls-10{fill:#7dcfd3;}</style></defs><title>ship1-enemy</title><g id="Layer_2" data-name="Layer 2"><g id="ship_dark" data-name="ship dark"><g id="ship1_copy" data-name="ship1 copy"><path class="cls-1" d="M12.19,118.69,14,136.33a9.61,9.61,0,0,0,5.14,7.59l47.63,24.73a32.71,32.71,0,0,0,15.08,3.68h0V0S70.4,0,68.11,21.68,61.27,71.9,59,81,47.7,102.92,40.72,107.28C22.46,118.69,12.19,118.69,12.19,118.69Z"/><path class="cls-2" d="M151.42,118.69l-1.76,17.64a9.63,9.63,0,0,1-5.14,7.59L96.89,168.65a32.71,32.71,0,0,1-15.08,3.68h0V0S93.22,0,95.5,21.68,102.35,71.9,104.63,81s11.28,21.89,18.26,26.25C141.15,118.69,151.42,118.69,151.42,118.69Z"/><path class="cls-3" d="M68.11,21.68h13.7V0S69.25,0,68.11,21.68Z"/><path class="cls-4" d="M95.5,21.68H81.81V0S94.36,0,95.5,21.68Z"/><path class="cls-5" d="M53.91,107.41s9.53,6.26,27.9,5.65v-5.64H53.91"/><path class="cls-6" d="M109.81,107.41s-9.56,6.26-28,5.65v-5.64h28"/><path class="cls-7" d="M81.8,112.92c-12.89-.15-20.93-1.5-27.89-5.46,0,0,2.61,29.34,27.89,29.94Z"/><path class="cls-8" d="M81.82,112.92c12.89-.15,20.93-1.5,27.89-5.46,0,0-2.61,29.34-27.89,29.94Z"/><path class="cls-2" d="M162.31,151.49l-7.2-53.71s-1.62-6-5-8.25a.76.76,0,0,0-.57-.1v71.33a16,16,0,0,0,11.59-5.54A4.61,4.61,0,0,0,162.31,151.49Z"/><path class="cls-9" d="M137,151.49l7.21-53.71s1.61-6,5-8.25a.74.74,0,0,1,.56-.1v71.33a16,16,0,0,1-11.58-5.54A4.65,4.65,0,0,1,137,151.49Z"/><path class="cls-3" d="M149.06,89.59c-1.21.81-3.9,3.13-4.85,8.19.13-.13,10.9,0,10.9,0s-1.9-6.57-4.74-8.24A1.24,1.24,0,0,0,149.06,89.59Z"/><path class="cls-4" d="M149.74,97.7l5.37,0s-1.9-6.57-4.74-8.24a1.28,1.28,0,0,0-.63-.16Z"/><polygon class="cls-4" points="155.95 104.03 143.37 104.03 143.48 103.23 155.84 103.23 155.95 104.03"/><polygon class="cls-3" points="149.73 103.23 143.48 103.23 143.37 104.03 149.73 104.03 149.73 103.23"/><polygon class="cls-4" points="156.21 106 143.37 106 143.48 104.66 156.04 104.66 156.21 106"/><polygon class="cls-3" points="149.73 104.67 143.28 104.67 143.1 106 149.73 106 149.73 104.67"/><path class="cls-3" d="M138.65,139.08h22l1.67,12.41a4.52,4.52,0,0,1-1.14,3.73c-1.61,1.73-5.6,5.64-11.44,5.54a16,16,0,0,1-11.58-5.54c-1.77-2-1.15-3.73-1.15-3.73Z"/><path class="cls-4" d="M162.31,151.5l-1.67-12.42H149.7v21.68h0c5.84.09,9.83-3.81,11.44-5.54A4.52,4.52,0,0,0,162.31,151.5Z"/><path class="cls-2" d="M25.42,151.49,18.21,97.78s-1.61-6-5-8.25a.74.74,0,0,0-.56-.1v71.33a16,16,0,0,0,11.58-5.54A4.65,4.65,0,0,0,25.42,151.49Z"/><path class="cls-9" d="M.11,151.49l7.2-53.71s1.62-6,5-8.25a.76.76,0,0,1,.57-.1v71.33a16,16,0,0,1-11.59-5.54A4.61,4.61,0,0,1,.11,151.49Z"/><path class="cls-3" d="M12.16,89.59c-1.21.81-3.9,3.13-4.85,8.19.13-.13,10.9,0,10.9,0s-1.9-6.57-4.74-8.24A1.24,1.24,0,0,0,12.16,89.59Z"/><path class="cls-4" d="M12.84,97.7l5.37,0s-1.9-6.57-4.74-8.24a1.26,1.26,0,0,0-.63-.16Z"/><polygon class="cls-4" points="19.05 104.03 6.47 104.03 6.58 103.23 18.94 103.23 19.05 104.03"/><polygon class="cls-3" points="12.84 103.23 6.58 103.23 6.47 104.03 12.84 104.03 12.84 103.23"/><polygon class="cls-4" points="19.31 106 6.47 106 6.58 104.66 19.14 104.66 19.31 106"/><polygon class="cls-3" points="12.84 104.67 6.38 104.67 6.21 106 12.84 106 12.84 104.67"/><path class="cls-3" d="M1.75,139.08h22l1.68,12.41a4.55,4.55,0,0,1-1.15,3.73c-1.6,1.73-5.6,5.64-11.43,5.54a16,16,0,0,1-11.59-5.54c-1.77-2-1.14-3.73-1.14-3.73Z"/><path class="cls-4" d="M25.42,151.5l-1.68-12.42H12.8v21.68h0c5.83.09,9.83-3.81,11.43-5.54A4.55,4.55,0,0,0,25.42,151.5Z"/><polygon class="cls-10" points="64.42 50.34 52.56 50.93 52.56 47.31 65.25 44.63 64.42 50.34"/><path class="cls-2" d="M63.16,53,61.42,40a4.14,4.14,0,0,0-1.2-2,.22.22,0,0,0-.14,0V55.25a3.87,3.87,0,0,0,2.81-1.34A1.12,1.12,0,0,0,63.16,53Z"/><path class="cls-9" d="M57,53l1.74-13A4.14,4.14,0,0,1,60,38a.22.22,0,0,1,.14,0V55.25a3.87,3.87,0,0,1-2.81-1.34A1.12,1.12,0,0,1,57,53Z"/><path class="cls-3" d="M60,38a2.89,2.89,0,0,0-1.18,2s2.64,0,2.64,0-.46-1.59-1.15-2A.31.31,0,0,0,60,38Z"/><path class="cls-4" d="M60.12,40h1.3S61,38.4,60.27,38a.28.28,0,0,0-.15,0Z"/><polygon class="cls-4" points="61.62 41.51 58.58 41.51 58.6 41.32 61.6 41.32 61.62 41.51"/><polygon class="cls-3" points="60.12 41.32 58.6 41.32 58.58 41.51 60.12 41.51 60.12 41.32"/><polygon class="cls-4" points="61.69 41.99 58.58 41.99 58.6 41.67 61.64 41.67 61.69 41.99"/><polygon class="cls-3" points="60.12 41.67 58.55 41.67 58.51 41.99 60.12 41.99 60.12 41.67"/><path class="cls-3" d="M57.43,50h5.33l.4,3a1.13,1.13,0,0,1-.27.91,3.81,3.81,0,0,1-2.77,1.34,3.9,3.9,0,0,1-2.81-1.34A1,1,0,0,1,57,53Z"/><path class="cls-4" d="M63.16,53l-.4-3H60.11v5.25h0a3.81,3.81,0,0,0,2.77-1.34A1.11,1.11,0,0,0,63.16,53Z"/><path class="cls-2" d="M55.19,51.09l-1.4-10.44a3.29,3.29,0,0,0-1-1.6.2.2,0,0,0-.11,0V52.89A3.13,3.13,0,0,0,55,51.82.89.89,0,0,0,55.19,51.09Z"/><path class="cls-9" d="M50.28,51.09l1.4-10.44a3.29,3.29,0,0,1,1-1.6.2.2,0,0,1,.11,0V52.89a3.13,3.13,0,0,1-2.25-1.07A.89.89,0,0,1,50.28,51.09Z"/><path class="cls-3" d="M52.62,39.06a2.34,2.34,0,0,0-.94,1.59s2.11,0,2.11,0-.37-1.27-.92-1.6A.25.25,0,0,0,52.62,39.06Z"/><path class="cls-4" d="M52.75,40.64h1s-.37-1.28-.92-1.6l-.12,0Z"/><polygon class="cls-4" points="53.96 41.87 51.51 41.87 51.53 41.71 53.94 41.71 53.96 41.87"/><polygon class="cls-3" points="52.75 41.71 51.53 41.71 51.51 41.87 52.75 41.87 52.75 41.71"/><polygon class="cls-4" points="54.01 42.25 51.51 42.25 51.53 41.99 53.97 41.99 54.01 42.25"/><polygon class="cls-3" points="52.75 41.99 51.49 41.99 51.46 42.25 52.75 42.25 52.75 41.99"/><path class="cls-3" d="M50.6,48.68h4.27l.32,2.41a.9.9,0,0,1-.22.73,3.05,3.05,0,0,1-2.22,1.07,3.1,3.1,0,0,1-2.25-1.07.75.75,0,0,1-.22-.73Z"/><path class="cls-4" d="M55.19,51.09l-.32-2.41H52.74v4.21h0A3.05,3.05,0,0,0,55,51.82.9.9,0,0,0,55.19,51.09Z"/><polygon class="cls-10" points="99.16 50.34 111.02 50.93 111.02 47.31 98.32 44.63 99.16 50.34"/><path class="cls-2" d="M100.41,53l1.75-13a4.14,4.14,0,0,1,1.2-2,.22.22,0,0,1,.14,0V55.25a3.87,3.87,0,0,1-2.81-1.34A1.16,1.16,0,0,1,100.41,53Z"/><path class="cls-9" d="M106.54,53,104.8,40a4.14,4.14,0,0,0-1.2-2,.23.23,0,0,0-.14,0V55.25a3.85,3.85,0,0,0,2.8-1.34A1.13,1.13,0,0,0,106.54,53Z"/><path class="cls-3" d="M103.62,38a2.89,2.89,0,0,1,1.18,2s-2.64,0-2.64,0,.46-1.59,1.15-2A.31.31,0,0,1,103.62,38Z"/><path class="cls-4" d="M103.46,40h-1.3s.46-1.59,1.15-2a.26.26,0,0,1,.15,0Z"/><polygon class="cls-4" points="101.95 41.51 105 41.51 104.97 41.32 101.98 41.32 101.95 41.51"/><polygon class="cls-3" points="103.46 41.32 104.97 41.32 105 41.51 103.46 41.51 103.46 41.32"/><polygon class="cls-4" points="101.89 41.99 105 41.99 104.97 41.67 101.93 41.67 101.89 41.99"/><polygon class="cls-3" points="103.46 41.67 105.02 41.67 105.06 41.99 103.46 41.99 103.46 41.67"/><path class="cls-3" d="M106.14,50h-5.32l-.41,3a1.11,1.11,0,0,0,.28.91,3.81,3.81,0,0,0,2.77,1.34,3.87,3.87,0,0,0,2.8-1.34,1,1,0,0,0,.28-.91Z"/><path class="cls-4" d="M100.41,53l.41-3h2.65v5.25h0a3.81,3.81,0,0,1-2.77-1.34A1.09,1.09,0,0,1,100.41,53Z"/><path class="cls-2" d="M108.38,51.09l1.4-10.44a3.34,3.34,0,0,1,1-1.6.2.2,0,0,1,.11,0V52.89a3.13,3.13,0,0,1-2.25-1.07A.94.94,0,0,1,108.38,51.09Z"/><path class="cls-9" d="M113.3,51.09l-1.4-10.44a3.29,3.29,0,0,0-1-1.6.22.22,0,0,0-.11,0V52.89a3.15,3.15,0,0,0,2.25-1.07A.89.89,0,0,0,113.3,51.09Z"/><path class="cls-3" d="M111,39.06a2.38,2.38,0,0,1,.94,1.59s-2.12,0-2.12,0,.37-1.27.92-1.6A.27.27,0,0,1,111,39.06Z"/><path class="cls-4" d="M110.83,40.64h-1s.37-1.28.92-1.6a.31.31,0,0,1,.13,0Z"/><polygon class="cls-4" points="109.62 41.87 112.06 41.87 112.04 41.71 109.64 41.71 109.62 41.87"/><polygon class="cls-3" points="110.83 41.71 112.04 41.71 112.06 41.87 110.83 41.87 110.83 41.71"/><polygon class="cls-4" points="109.57 42.25 112.06 42.25 112.04 41.99 109.6 41.99 109.57 42.25"/><polygon class="cls-3" points="110.83 41.99 112.08 41.99 112.12 42.25 110.83 42.25 110.83 41.99"/><path class="cls-3" d="M113,48.68h-4.27l-.33,2.41a.89.89,0,0,0,.23.73,3,3,0,0,0,2.22,1.07,3.14,3.14,0,0,0,2.25-1.07.78.78,0,0,0,.22-.73Z"/><path class="cls-4" d="M108.38,51.09l.33-2.41h2.13v4.21h0a3,3,0,0,1-2.22-1.07A.89.89,0,0,1,108.38,51.09Z"/><path class="cls-3" d="M33.14,128.62h0L36.33,136c0,.08.08.12.16.12h0c.08,0,.12,0,.16-.12l1.43-2.86h0v0h0v0h0v0h0l0,0-3.84-3.84,0,0,6.33,2.53-2,.94a0,0,0,0,1,0,0,.26.26,0,0,0,0,.29.25.25,0,0,0,.28,0L41,131.76c.08,0,.12-.08.12-.16s0-.12-.12-.16l-7.67-3h-.21v0h0v0h0v.12Zm.78.82h0L35,130.5l2.69,2.69-1.18,2.37Z"/><path class="cls-3" d="M42.4,130.18h0l3.18,7.38c0,.09.09.13.17.13h0c.08,0,.12,0,.16-.13l1.43-2.85h0v0h0v0h0v0h0l0-.05-3.84-3.83,0,0,6.33,2.53-2,.94a0,0,0,0,1,0,0,.22.22,0,0,0,0,.28.25.25,0,0,0,.28,0l2.29-1.18c.08,0,.12-.08.12-.16s0-.12-.12-.17l-7.67-3H42.4v0h0v0h0v.12Zm.78.82h0l1.06,1.06,2.69,2.69-1.18,2.37Z"/><path class="cls-3" d="M38.16,136.76h0l3.18,7.38a.18.18,0,0,0,.17.12h0c.08,0,.12,0,.16-.12l1.43-2.86h0v0h0v0h0v0h0l0,0-3.84-3.83,0,0,6.33,2.53-2,.93a0,0,0,0,1,0,0,.23.23,0,0,0,0,.29.25.25,0,0,0,.28,0L46,139.9c.08,0,.12-.08.12-.17s0-.12-.12-.16l-7.67-3h-.21v0h0v0h0v.13Zm.78.81h0L40,138.63l2.69,2.7-1.18,2.36Z"/><path class="cls-3" d="M127.84,128.62h0v-.12h0v0h0v0h-.2l-7.67,3c-.08,0-.12.08-.12.16s0,.16.12.16l2.29,1.19a.25.25,0,0,0,.28,0,.26.26,0,0,0,0-.29,0,0,0,0,1,0,0l-2-.94,6.32-2.53,0,0L123,133l0,0h0v0h0v0h0v0h0l1.43,2.86c0,.08.08.12.16.12h0c.08,0,.12,0,.16-.12l3.18-7.39Zm-3.34,6.94-1.18-2.37L126,130.5l1.06-1.06h0Z"/><path class="cls-3" d="M118.59,130.18h0v-.12h0v0h0v0h-.21l-7.67,3c-.08,0-.12.09-.12.17s0,.16.12.16L113,134.5a.2.2,0,1,0,.24-.32,0,0,0,0,1,0,0l-2-.94,6.33-2.53,0,0-3.83,3.83,0,.05h0v0h0v0h0v0h0l1.43,2.85c0,.09.08.13.16.13h0c.08,0,.12,0,.16-.13l3.19-7.38Zm-3.35,6.94-1.18-2.37,2.69-2.69,1.06-1.06h0Z"/><path class="cls-3" d="M122.83,136.76h0v-.13h0v0h0v0h-.21l-7.67,3c-.08,0-.12.08-.12.16s0,.17.12.17l2.29,1.18a.25.25,0,0,0,.28,0,.26.26,0,0,0,0-.29,0,0,0,0,1,0,0l-2-.93,6.33-2.53,0,0-3.83,3.83,0,0h0v0h0v0h0v0h0l1.43,2.86c0,.08.08.12.16.12h0c.08,0,.12,0,.16-.12l3.19-7.38Zm-3.35,6.93-1.18-2.36,2.69-2.7,1.06-1.06h0Z"/></g></g></g></svg>