<svg xmlns="http://www.w3.org/2000/svg" xmlns:xlink="http://www.w3.org/1999/xlink" viewBox="0 0 142.2 207.77"><defs><style>.cls-1{fill:none;}.cls-2{isolation:isolate;}.cls-3{fill:#cc3a48;}.cls-4{fill:#bc3347;}.cls-5{fill:#d63e4d;}.cls-6{clip-path:url(#clip-path);}.cls-7{fill:#fff;}.cls-8{opacity:0.4;mix-blend-mode:soft-light;}.cls-9{fill:#595f7c;}.cls-10{fill:#4d546b;}</style><clipPath id="clip-path"><path class="cls-1" d="M94.35,74.05C89.58,27.84,74.13,5.64,71,1.5V1.24L70.63.77,70.5.92,70.38.77c-.12.15-.23.31-.34.47V1.5C66.87,5.64,51.43,27.84,46.65,74.05,41.33,125.65,61.3,183.49,61.3,183.49H79.7S99.67,125.65,94.35,74.05Z"/></clipPath></defs><title>ship2</title><g class="cls-2"><g id="Layer_2" data-name="Layer 2"><g id="ship2"><g id="Layer_9" data-name="Layer 9"><path class="cls-3" d="M33,109.85h0s-10.41,9.77-2.67,33.77a17.77,17.77,0,0,0,2.67,0Z"/><path class="cls-4" d="M33,109.85h0s10.4,9.77,2.66,33.77a17.77,17.77,0,0,1-2.67,0Z"/><path class="cls-3" d="M107.73,109.85h0s-10.4,9.77-2.66,33.77a17.77,17.77,0,0,0,2.67,0Z"/><path class="cls-4" d="M107.74,109.85h0s10.4,9.77,2.66,33.77a17.77,17.77,0,0,1-2.67,0Z"/><path class="cls-5" d="M41.81,124.77s-31.23,18.38-31.23,49.4-1,27.36-1,27.36h7.55s14.31-33.77,41.66-33.77C58.79,167.76,57.43,112.94,41.81,124.77Z"/><path class="cls-3" d="M13,128.4l0,0s-24.42,22.93-6.24,79.25a43.13,43.13,0,0,0,6.26.12Z"/><path class="cls-4" d="M13,128.4l0,0s24.42,22.93,6.24,79.25a43.13,43.13,0,0,1-6.26.12Z"/><path class="cls-5" d="M100.39,124.77s31.23,18.38,31.23,49.4,1,27.36,1,27.36h-7.56s-14.31-33.77-41.66-33.77C83.41,167.76,84.77,112.94,100.39,124.77Z"/><path class="cls-3" d="M129.21,128.4l0,0s24.43,22.93,6.25,79.25a43.31,43.31,0,0,1-6.27.12Z"/><path class="cls-4" d="M129.19,128.4v0s-24.43,22.93-6.25,79.25a43.21,43.21,0,0,0,6.26.12Z"/><path class="cls-3" d="M94.45,73.76C89.14,22.16,70.58.47,70.58.47l-.24.34L70.11.47S51.75,22.16,46.51,73.76,60.93,183.21,60.93,183.21H79.86S99.75,125.36,94.45,73.76Z"/><g class="cls-6"><rect class="cls-7" x="61.72" y="61.51" width="17.88" height="17.35"/><rect class="cls-7" x="61.66" y="95.16" width="17.88" height="17.35"/><rect class="cls-7" x="61.66" y="129.01" width="17.88" height="17.35"/><rect class="cls-7" x="44.95" y="78.69" width="16.69" height="16.48"/><rect class="cls-7" x="79.56" y="78.69" width="16.69" height="16.48"/><rect class="cls-7" x="44.95" y="45.39" width="16.69" height="16.48"/><rect class="cls-7" x="79.56" y="45.39" width="16.69" height="16.48"/><rect class="cls-7" x="45.01" y="112.49" width="16.69" height="16.48"/><rect class="cls-7" x="79.62" y="112.49" width="16.69" height="16.48"/></g><path class="cls-8" d="M70.49.47,70.81,0s18.36,21.69,23.6,73.29S80,182.73,80,182.73h-9.5Z"/></g><g id="Layer_10" data-name="Layer 10"><polygon class="cls-9" points="84.28 189.39 80.9 180.32 70.5 180.32 70.43 180.32 60.03 180.32 56.65 189.39 70.47 189.38 84.28 189.39"/><polygon class="cls-10" points="80.94 180.34 70.54 180.34 70.49 180.34 70.49 189.4 70.51 189.4 84.32 189.41 80.94 180.34"/><path class="cls-7" d="M37.29,145.77h0l-.13-.07-.06,0h0l-.06,0h0l-.06,0h0l-.08.12h0l-.07.13,0,.06-2.41,14.56a.33.33,0,0,0,.14.34.27.27,0,0,0,.37,0l3.91-2.43a.43.43,0,0,0,.2-.47.44.44,0,0,0-.47-.2.07.07,0,0,1-.1,0l-3.24,2.15,1.92-12,0,.1,2.37,9.41,0,.11h0l.06,0h0l.06,0h0l.07,0h0l5.7.43a.3.3,0,0,0,.33-.14h0a.32.32,0,0,0,0-.37l-8.43-11.67Zm7.59,11.51-4.73-.35-1.66-6.61-.66-2.61h0Z"/><path class="cls-7" d="M106.63,146.27h0l-10,10.37c-.11.13-.15.22-.09.36h0c0,.13.15.17.31.18l5.71.38h0l.06,0h0l.07,0h0l.07,0h0l0-.09,3.67-9,0-.1.21,12.19-2.91-2.58a.06.06,0,0,1-.09,0,.45.45,0,0,0-.5.13.44.44,0,0,0,.13.5l3.53,2.95c.06.14.22.15.36.09s.17-.15.18-.31l-.33-14.76,0-.06-.06-.14h0l-.06-.13h0l-.06,0h0l-.07,0h0l-.07,0-.13.06Zm-.81,1.84h0l-1,2.49-2.57,6.31-4.73-.31Z"/></g></g></g></g></svg>